<?xml version="1.0" standalone="no"?>
<!DOCTYPE svg PUBLIC "-//W3C//DTD SVG 20010904//EN"
 "http://www.w3.org/TR/2001/REC-SVG-20010904/DTD/svg10.dtd">
<svg version="1.0" xmlns="http://www.w3.org/2000/svg"
 width="620.000000pt" height="620.000000pt" viewBox="0 0 620.000000 620.000000"
 preserveAspectRatio="xMidYMid meet">

<g transform="translate(0.000000,620.000000) scale(0.100000,-0.100000)"
fill="#000000" stroke="none">
<path d="M1398 5500 c-287 -49 -523 -272 -598 -564 -20 -78 -20 -108 -20
-1600 0 -1480 1 -1523 20 -1603 65 -271 276 -484 547 -553 74 -19 120 -20
1608 -20 1483 0 1534 1 1608 19 217 56 393 201 492 406 80 166 75 48 75 1753
0 1490 0 1520 -20 1598 -56 220 -199 399 -395 494 -167 81 -14 75 -1735 76
-844 1 -1556 -2 -1582 -6z m1000 -626 c5 -91 1 -97 -75 -129 -362 -150 -663
-441 -839 -810 -32 -66 -62 -123 -68 -127 -6 -4 -41 -8 -78 -8 -78 0 -103 16
-93 59 10 42 90 216 136 297 171 298 477 581 787 727 197 92 225 91 230 -9z
m1344 8 c365 -171 676 -483 853 -854 102 -216 101 -223 -25 -223 -64 0 -85 3
-91 15 -4 8 -32 67 -62 130 -95 198 -217 359 -387 513 -109 98 -216 169 -370
245 -74 37 -138 71 -142 77 -4 5 -8 40 -8 77 0 57 3 69 21 82 19 13 27 12 75
-4 29 -10 90 -36 136 -58z m-1298 -1023 c51 -14 128 -91 144 -145 44 -149 -20
-302 -162 -389 -15 -9 -10 -26 43 -150 46 -110 64 -143 85 -153 15 -7 34 -12
42 -10 14 3 13 6 -4 28 -28 36 -43 91 -43 154 0 72 14 123 52 179 62 94 138
138 251 145 69 4 84 2 132 -22 68 -33 106 -83 126 -163 l15 -62 110 271 c125
307 139 328 221 328 55 0 90 -21 104 -65 15 -45 13 -51 -114 -357 -58 -141
-106 -260 -106 -263 0 -3 11 -5 24 -5 21 0 25 7 36 62 17 87 50 147 114 205
49 46 53 52 39 66 -24 24 -20 93 7 122 33 35 154 95 194 97 38 1 60 -11 124
-68 35 -31 45 -48 49 -81 5 -38 2 -46 -29 -77 l-34 -34 23 -26 c50 -58 53
-159 8 -227 l-24 -36 25 -12 c18 -8 36 -8 68 1 l43 11 -31 28 c-46 40 -41 80
27 215 65 131 98 164 161 164 33 0 48 -6 69 -28 23 -23 27 -37 27 -82 0 -47 6
-62 44 -119 55 -84 69 -128 64 -202 -6 -78 -43 -133 -118 -172 -54 -28 -56
-28 -190 -23 -163 6 -140 6 -327 0 -167 -5 -215 2 -261 41 -25 20 -31 22 -36
10 -3 -8 -20 -24 -38 -35 -28 -17 -51 -20 -141 -20 -77 0 -116 4 -137 15 -30
15 -60 61 -60 89 0 9 -21 -6 -50 -34 -27 -28 -56 -50 -64 -50 -12 0 -12 -5 -4
-28 16 -41 2 -94 -33 -128 l-30 -29 -210 -3 c-304 -5 -299 -8 -420 284 -37 92
-70 168 -72 170 -2 2 -32 -66 -67 -152 -95 -231 -166 -324 -290 -382 -74 -35
-194 -42 -275 -17 -75 24 -154 95 -185 167 -31 71 -38 183 -16 268 55 213 281
380 517 380 53 0 73 -5 100 -23 l34 -23 36 90 37 91 -32 6 c-51 9 -75 27 -87
68 -10 33 -9 45 7 78 32 65 61 73 269 73 99 0 197 -5 219 -11z m-1029 -1177
c6 -4 43 -72 83 -152 89 -180 177 -304 309 -435 132 -132 254 -218 433 -307
80 -40 148 -77 152 -83 4 -5 8 -40 8 -77 0 -111 -17 -116 -165 -52 -426 184
-779 541 -956 967 -44 105 -45 110 -23 131 16 17 139 23 159 8z m3239 -8 c21
-20 20 -22 -8 -96 -91 -243 -299 -538 -494 -702 -166 -139 -364 -260 -526
-321 -78 -29 -80 -30 -100 -9 -17 16 -23 138 -8 160 4 6 61 36 127 68 328 157
577 394 743 706 28 52 58 115 68 140 9 25 22 51 27 58 15 19 151 16 171 -4z"/>
<path d="M2272 4885 c-316 -130 -596 -361 -794 -654 -64 -97 -161 -282 -186
-358 l-11 -33 57 0 58 0 29 68 c80 183 183 337 330 490 154 161 348 297 538
378 l67 28 0 58 c0 32 -1 58 -2 58 -2 0 -40 -16 -86 -35z"/>
<path d="M3550 4862 l0 -58 68 -28 c246 -105 513 -317 679 -540 61 -82 148
-234 189 -328 l28 -68 58 0 57 0 -11 33 c-22 68 -119 256 -175 342 -133 202
-300 371 -502 507 -97 64 -282 161 -358 186 l-33 11 0 -57z"/>
<path d="M2040 3823 c-34 -12 -50 -37 -50 -74 0 -47 18 -59 90 -59 38 0 51 -3
47 -12 -63 -163 -228 -562 -254 -616 -86 -176 -208 -233 -292 -136 -28 31 -31
41 -31 101 0 155 109 254 311 282 60 8 78 15 97 36 28 33 28 57 -1 91 -71 82
-331 11 -461 -125 -178 -188 -165 -461 29 -564 33 -18 57 -22 135 -22 117 0
168 22 250 105 65 65 103 135 196 363 41 102 71 163 75 155 4 -7 46 -107 93
-221 47 -115 94 -221 106 -236 38 -54 69 -61 280 -61 l192 0 29 29 c35 35 38
74 7 95 -18 13 -53 16 -173 16 -213 0 -202 -8 -291 204 l-72 170 47 21 c93 44
150 127 159 232 8 110 -45 197 -135 222 -39 11 -356 14 -383 4z m329 -150 c47
-39 31 -131 -30 -176 -25 -18 -109 -40 -118 -32 -3 4 25 80 68 178 22 52 43
60 80 30z"/>
<path d="M2310 3585 c-26 -63 -21 -79 14 -46 24 23 38 64 29 88 -9 24 -21 13
-43 -42z"/>
<path d="M3408 3810 c-18 -14 -63 -111 -162 -356 -76 -185 -140 -351 -143
-368 -3 -22 1 -39 15 -56 19 -23 27 -25 129 -28 98 -3 111 -2 136 18 20 16 27
30 27 55 0 48 -22 65 -84 65 l-54 0 80 193 c178 431 180 435 167 459 -7 13
-17 26 -23 30 -20 14 -63 8 -88 -12z"/>
<path d="M3674 3659 c-77 -41 -94 -57 -94 -89 0 -56 37 -63 115 -24 l53 27 34
-27 c19 -14 44 -26 55 -26 30 0 57 34 49 64 -7 30 -101 106 -131 106 -12 0
-49 -14 -81 -31z"/>
<path d="M4113 3528 c-30 -33 -123 -223 -123 -251 0 -31 29 -57 64 -57 27 0
76 39 76 60 0 23 18 8 34 -29 37 -80 6 -111 -112 -111 -68 0 -76 -2 -103 -29
-34 -35 -37 -63 -8 -92 19 -19 30 -20 143 -17 114 3 125 5 164 31 72 47 101
141 68 220 -7 18 -32 61 -55 96 -35 54 -41 72 -41 116 0 38 -5 56 -18 68 -26
24 -65 21 -89 -5z"/>
<path d="M2771 3463 c-53 -19 -128 -91 -156 -148 -30 -62 -32 -164 -5 -219 34
-72 67 -90 176 -94 80 -4 99 -1 138 18 85 41 137 126 144 237 6 89 -18 147
-80 189 -33 23 -53 29 -107 31 -42 2 -82 -3 -110 -14z m120 -124 c46 -24 44
-110 -4 -164 -29 -34 -87 -44 -122 -21 -20 13 -25 25 -25 58 0 90 86 162 151
127z"/>
<path d="M2827 3299 c-21 -12 -47 -61 -47 -88 0 -41 67 -34 90 9 15 29 12 77
-6 84 -19 7 -15 8 -37 -5z"/>
<path d="M3605 3457 c-52 -25 -111 -83 -142 -139 -13 -25 -18 -56 -18 -125 0
-107 13 -134 86 -171 41 -21 54 -23 192 -20 143 3 150 4 168 27 24 29 24 73 1
94 -15 14 -41 17 -141 17 -114 0 -161 9 -161 29 0 5 46 11 103 13 114 4 146
17 174 72 19 35 21 113 4 144 -6 12 -28 34 -48 49 -51 39 -147 44 -218 10z
m119 -103 c25 -10 20 -51 -6 -58 -35 -9 -98 -7 -98 3 0 13 59 61 75 61 7 0 20
-3 29 -6z"/>
<path d="M1814 3260 c-131 -26 -224 -119 -224 -224 0 -59 16 -92 51 -106 61
-26 131 25 188 138 32 63 81 181 81 194 0 10 -40 9 -96 -2z"/>
<path d="M4125 3200 c-3 -5 -1 -10 4 -10 6 0 11 5 11 10 0 6 -2 10 -4 10 -3 0
-8 -4 -11 -10z"/>
<path d="M1292 2618 c25 -77 122 -262 186 -359 136 -202 305 -369 507 -502 86
-56 274 -153 343 -175 l32 -11 0 57 0 58 -67 28 c-320 136 -626 414 -795 721
-24 44 -57 110 -73 148 l-29 67 -58 0 -57 0 11 -32z"/>
<path d="M4485 2583 c-80 -184 -183 -338 -330 -491 -154 -161 -348 -297 -537
-378 l-68 -28 0 -58 0 -57 33 11 c68 22 256 119 342 175 202 133 371 300 507
502 64 97 161 282 186 359 l11 32 -57 0 -58 0 -29 -67z"/>
</g>
</svg>
