<?xml version="1.0" standalone="no"?>
<!DOCTYPE svg PUBLIC "-//W3C//DTD SVG 20010904//EN"
 "http://www.w3.org/TR/2001/REC-SVG-20010904/DTD/svg10.dtd">
<svg version="1.0" xmlns="http://www.w3.org/2000/svg"
 width="620.000000pt" height="620.000000pt" viewBox="0 0 620.000000 620.000000"
 preserveAspectRatio="xMidYMid meet">

<g transform="translate(0.000000,620.000000) scale(0.100000,-0.100000)"
fill="#000000" stroke="none">
<path d="M1398 5500 c-287 -49 -523 -272 -598 -564 -20 -78 -20 -108 -20
-1600 0 -1480 1 -1523 20 -1603 65 -271 276 -484 547 -553 74 -19 120 -20
1608 -20 1483 0 1534 1 1608 19 217 56 393 201 492 406 80 166 75 48 75 1753
0 1490 0 1520 -20 1598 -56 220 -199 399 -395 494 -167 81 -14 75 -1735 76
-844 1 -1556 -2 -1582 -6z m2042 -890 c186 -30 338 -178 380 -371 18 -83 8
-258 -19 -339 -52 -151 -169 -294 -294 -361 l-66 -35 114 -269 c63 -148 123
-281 133 -295 l19 -25 339 -5 c373 -6 385 -7 439 -72 72 -86 47 -250 -49 -320
-78 -56 -107 -59 -518 -56 -257 3 -384 8 -409 16 -67 23 -153 86 -192 143 -21
31 -97 198 -177 389 -77 184 -144 344 -149 355 l-9 20 -8 -20 c-49 -128 -216
-521 -251 -592 -171 -352 -442 -542 -773 -543 -393 0 -659 271 -660 673 0 91
34 254 72 345 127 305 428 537 795 611 190 39 338 24 427 -44 l36 -27 10 23
c29 68 140 345 140 350 0 3 -25 9 -55 12 -141 14 -219 122 -185 255 23 92 83
152 178 178 59 16 636 19 732 4z"/>
<path d="M2713 4524 c-115 -42 -149 -182 -60 -248 24 -18 46 -22 134 -24 92
-3 104 -6 100 -20 -17 -61 -468 -1157 -511 -1243 -120 -240 -218 -335 -363
-355 -166 -22 -281 85 -291 271 -10 196 104 384 295 482 98 51 162 69 323 93
70 10 144 26 164 35 47 22 76 71 76 126 0 64 -29 105 -97 136 -53 24 -62 25
-167 20 -263 -14 -499 -119 -687 -306 -110 -110 -176 -212 -215 -335 -88 -277
-37 -539 134 -698 108 -99 240 -148 401 -148 255 1 465 124 628 368 53 81 138
266 273 597 67 165 125 303 129 307 4 5 89 -189 189 -430 113 -269 196 -455
218 -485 42 -58 109 -102 178 -117 34 -8 168 -10 401 -8 332 3 352 4 390 24
48 25 81 70 90 124 8 47 -8 84 -48 114 -27 20 -43 21 -370 26 -365 5 -369 6
-405 57 -22 32 -282 639 -282 659 0 8 6 14 14 14 7 0 46 17 87 37 139 69 257
220 294 374 17 73 19 194 4 258 -28 121 -126 238 -236 282 -56 22 -70 23 -403
26 -289 2 -352 0 -387 -13z m652 -300 c57 -37 78 -133 51 -229 -14 -45 -29
-69 -69 -110 -60 -59 -116 -83 -220 -92 l-69 -6 14 34 c8 19 50 123 94 233
l79 198 47 -5 c26 -3 59 -14 73 -23z"/>
<path d="M3243 4027 c-29 -73 -53 -136 -53 -140 0 -12 62 22 93 52 43 39 59
78 58 139 0 53 -13 82 -35 82 -6 0 -35 -60 -63 -133z"/>
<path d="M2340 3398 c-69 -10 -147 -25 -175 -34 -209 -69 -351 -229 -363 -408
-9 -139 44 -227 143 -240 138 -19 236 65 355 303 48 96 174 392 168 396 -2 0
-59 -7 -128 -17z"/>
</g>
</svg>
