<svg version="1.0" xmlns="http://www.w3.org/2000/svg" width="826.667" height="826.667" viewBox="0 0 620 620"><path d="M139.8 70c-28.7 4.9-52.3 27.2-59.8 56.4-2 7.8-2 10.8-2 160 0 148 .1 152.3 2 160.3 6.5 27.1 27.6 48.4 54.7 55.3 7.4 1.9 12 2 160.8 2 148.3 0 153.4-.1 160.8-1.9 21.7-5.6 39.3-20.1 49.2-40.6 8-16.6 7.5-4.8 7.5-175.3 0-149 0-152-2-159.8-5.6-22-19.9-39.9-39.5-49.4-16.7-8.1-1.4-7.5-173.5-7.6-84.4-.1-155.6.2-158.2.6zm100 62.6c.5 9.1.1 9.7-7.5 12.9-36.2 15-66.3 44.1-83.9 81-3.2 6.6-6.2 12.3-6.8 12.7-.6.4-4.1.8-7.8.8-7.8 0-10.3-1.6-9.3-5.9 1-4.2 9-21.6 13.6-29.7 17.1-29.8 47.7-58.1 78.7-72.7 19.7-9.2 22.5-9.1 23 .9zm134.4-.8c36.5 17.1 67.6 48.3 85.3 85.4 10.2 21.6 10.1 22.3-2.5 22.3-6.4 0-8.5-.3-9.1-1.5-.4-.8-3.2-6.7-6.2-13-9.5-19.8-21.7-35.9-38.7-51.3-10.9-9.8-21.6-16.9-37-24.5-7.4-3.7-13.8-7.1-14.2-7.7-.4-.5-.8-4-.8-7.7 0-5.7.3-6.9 2.1-8.2 1.9-1.3 2.7-1.2 7.5.4 2.9 1 9 3.6 13.6 5.8zM244.4 234.1c5.1 1.4 12.8 9.1 14.4 14.5 4.4 14.9-2 30.2-16.2 38.9-1.5.9-1 2.6 4.3 15 4.6 11 6.4 14.3 8.5 15.3 1.5.7 3.4 1.2 4.2 1 1.4-.3 1.3-.6-.4-2.8-2.8-3.6-4.3-9.1-4.3-15.4 0-7.2 1.4-12.3 5.2-17.9 6.2-9.4 13.8-13.8 25.1-14.5 6.9-.4 8.4-.2 13.2 2.2 6.8 3.3 10.6 8.3 12.6 16.3l1.5 6.2 11-27.1c12.5-30.7 13.9-32.8 22.1-32.8 5.5 0 9 2.1 10.4 6.5 1.5 4.5 1.3 5.1-11.4 35.7-5.8 14.1-10.6 26-10.6 26.3 0 .3 1.1.5 2.4.5 2.1 0 2.5-.7 3.6-6.2 1.7-8.7 5-14.7 11.4-20.5 4.9-4.6 5.3-5.2 3.9-6.6-2.4-2.4-2-9.3.7-12.2 3.3-3.5 15.4-9.5 19.4-9.7 3.8-.1 6 1.1 12.4 6.8 3.5 3.1 4.5 4.8 4.9 8.1.5 3.8.2 4.6-2.9 7.7l-3.4 3.4 2.3 2.6c5 5.8 5.3 15.9.8 22.7l-2.4 3.6 2.5 1.2c1.8.8 3.6.8 6.8-.1l4.3-1.1-3.1-2.8c-4.6-4-4.1-8 2.7-21.5 6.5-13.1 9.8-16.4 16.1-16.4 3.3 0 4.8.6 6.9 2.8 2.3 2.3 2.7 3.7 2.7 8.2 0 4.7.6 6.2 4.4 11.9 5.5 8.4 6.9 12.8 6.4 20.2-.6 7.8-4.3 13.3-11.8 17.2-5.4 2.8-5.6 2.8-19 2.3-16.3-.6-14-.6-32.7 0-16.7.5-21.5-.2-26.1-4.1-2.5-2-3.1-2.2-3.6-1-.3.8-2 2.4-3.8 3.5-2.8 1.7-5.1 2-14.1 2-7.7 0-11.6-.4-13.7-1.5-3-1.5-6-6.1-6-8.9 0-.9-2.1.6-5 3.4-2.7 2.8-5.6 5-6.4 5-1.2 0-1.2.5-.4 2.8 1.6 4.1.2 9.4-3.3 12.8l-3 2.9-21 .3c-30.4.5-29.9.8-42-28.4-3.7-9.2-7-16.8-7.2-17-.2-.2-3.2 6.6-6.7 15.2-9.5 23.1-16.6 32.4-29 38.2-7.4 3.5-19.4 4.2-27.5 1.7-7.5-2.4-15.4-9.5-18.5-16.7-3.1-7.1-3.8-18.3-1.6-26.8 5.5-21.3 28.1-38 51.7-38 5.3 0 7.3.5 10 2.3l3.4 2.3 3.6-9 3.7-9.1-3.2-.6c-5.1-.9-7.5-2.7-8.7-6.8-1-3.3-.9-4.5.7-7.8 3.2-6.5 6.1-7.3 26.9-7.3 9.9 0 19.7.5 21.9 1.1zM141.5 351.8c.6.4 4.3 7.2 8.3 15.2 8.9 18 17.7 30.4 30.9 43.5 13.2 13.2 25.4 21.8 43.3 30.7 8 4 14.8 7.7 15.2 8.3.4.5.8 4 .8 7.7 0 11.1-1.7 11.6-16.5 5.2-42.6-18.4-77.9-54.1-95.6-96.7-4.4-10.5-4.5-11-2.3-13.1 1.6-1.7 13.9-2.3 15.9-.8zm323.9.8c2.1 2 2 2.2-.8 9.6-9.1 24.3-29.9 53.8-49.4 70.2-16.6 13.9-36.4 26-52.6 32.1-7.8 2.9-8 3-10 .9-1.7-1.6-2.3-13.8-.8-16 .4-.6 6.1-3.6 12.7-6.8 32.8-15.7 57.7-39.4 74.3-70.6 2.8-5.2 5.8-11.5 6.8-14 .9-2.5 2.2-5.1 2.7-5.8 1.5-1.9 15.1-1.6 17.1.4z"/><path d="M227.2 131.5c-31.6 13-59.6 36.1-79.4 65.4-6.4 9.7-16.1 28.2-18.6 35.8l-1.1 3.3h11.5l2.9-6.8c8-18.3 18.3-33.7 33-49 15.4-16.1 34.8-29.7 53.8-37.8l6.7-2.8v-5.8c0-3.2-.1-5.8-.2-5.8-.2 0-4 1.6-8.6 3.5zm127.8 2.3v5.8l6.8 2.8c24.6 10.5 51.3 31.7 67.9 54 6.1 8.2 14.8 23.4 18.9 32.8l2.8 6.8h11.5l-1.1-3.3c-2.2-6.8-11.9-25.6-17.5-34.2-13.3-20.2-30-37.1-50.2-50.7-9.7-6.4-28.2-16.1-35.8-18.6l-3.3-1.1v5.7zM204 237.7c-3.4 1.2-5 3.7-5 7.4 0 4.7 1.8 5.9 9 5.9 3.8 0 5.1.3 4.7 1.2-6.3 16.3-22.8 56.2-25.4 61.6-8.6 17.6-20.8 23.3-29.2 13.6-2.8-3.1-3.1-4.1-3.1-10.1 0-15.5 10.9-25.4 31.1-28.2 6-.8 7.8-1.5 9.7-3.6 2.8-3.3 2.8-5.7-.1-9.1-7.1-8.2-33.1-1.1-46.1 12.5-17.8 18.8-16.5 46.1 2.9 56.4 3.3 1.8 5.7 2.2 13.5 2.2 11.7 0 16.8-2.2 25-10.5 6.5-6.5 10.3-13.5 19.6-36.3 4.1-10.2 7.1-16.3 7.5-15.5.4.7 4.6 10.7 9.3 22.1 4.7 11.5 9.4 22.1 10.6 23.6 3.8 5.4 6.9 6.1 28 6.1h19.2l2.9-2.9c3.5-3.5 3.8-7.4.7-9.5-1.8-1.3-5.3-1.6-17.3-1.6-21.3 0-20.2.8-29.1-20.4l-7.2-17 4.7-2.1c9.3-4.4 15-12.7 15.9-23.2.8-11-4.5-19.7-13.5-22.2-3.9-1.1-35.6-1.4-38.3-.4zm32.9 15c4.7 3.9 3.1 13.1-3 17.6-2.5 1.8-10.9 4-11.8 3.2-.3-.4 2.5-8 6.8-17.8 2.2-5.2 4.3-6 8-3z"/><path d="M231 261.5c-2.6 6.3-2.1 7.9 1.4 4.6 2.4-2.3 3.8-6.4 2.9-8.8-.9-2.4-2.1-1.3-4.3 4.2zM340.8 239c-1.8 1.4-6.3 11.1-16.2 35.6-7.6 18.5-14 35.1-14.3 36.8-.3 2.2.1 3.9 1.5 5.6 1.9 2.3 2.7 2.5 12.9 2.8 9.8.3 11.1.2 13.6-1.8 2-1.6 2.7-3 2.7-5.5 0-4.8-2.2-6.5-8.4-6.5h-5.4l8-19.3c17.8-43.1 18-43.5 16.7-45.9-.7-1.3-1.7-2.6-2.3-3-2-1.4-6.3-.8-8.8 1.2zm26.6 15.1c-7.7 4.1-9.4 5.7-9.4 8.9 0 5.6 3.7 6.3 11.5 2.4l5.3-2.7 3.4 2.7c1.9 1.4 4.4 2.6 5.5 2.6 3 0 5.7-3.4 4.9-6.4-.7-3-10.1-10.6-13.1-10.6-1.2 0-4.9 1.4-8.1 3.1zm43.9 13.1c-3 3.3-12.3 22.3-12.3 25.1 0 3.1 2.9 5.7 6.4 5.7 2.7 0 7.6-3.9 7.6-6 0-2.3 1.8-.8 3.4 2.9 3.7 8 .6 11.1-11.2 11.1-6.8 0-7.6.2-10.3 2.9-3.4 3.5-3.7 6.3-.8 9.2 1.9 1.9 3 2 14.3 1.7 11.4-.3 12.5-.5 16.4-3.1 7.2-4.7 10.1-14.1 6.8-22-.7-1.8-3.2-6.1-5.5-9.6-3.5-5.4-4.1-7.2-4.1-11.6 0-3.8-.5-5.6-1.8-6.8-2.6-2.4-6.5-2.1-8.9.5zm-134.2 6.5c-5.3 1.9-12.8 9.1-15.6 14.8-3 6.2-3.2 16.4-.5 21.9 3.4 7.2 6.7 9 17.6 9.4 8 .4 9.9.1 13.8-1.8 8.5-4.1 13.7-12.6 14.4-23.7.6-8.9-1.8-14.7-8-18.9-3.3-2.3-5.3-2.9-10.7-3.1-4.2-.2-8.2.3-11 1.4zm12 12.4c4.6 2.4 4.4 11-.4 16.4-2.9 3.4-8.7 4.4-12.2 2.1-2-1.3-2.5-2.5-2.5-5.8 0-9 8.6-16.2 15.1-12.7z"/><path d="M282.7 290.1c-2.1 1.2-4.7 6.1-4.7 8.8 0 4.1 6.7 3.4 9-.9 1.5-2.9 1.2-7.7-.6-8.4-1.9-.7-1.5-.8-3.7.5zm77.8-15.8c-5.2 2.5-11.1 8.3-14.2 13.9-1.3 2.5-1.8 5.6-1.8 12.5 0 10.7 1.3 13.4 8.6 17.1 4.1 2.1 5.4 2.3 19.2 2 14.3-.3 15-.4 16.8-2.7 2.4-2.9 2.4-7.3.1-9.4-1.5-1.4-4.1-1.7-14.1-1.7-11.4 0-16.1-.9-16.1-2.9 0-.5 4.6-1.1 10.3-1.3 11.4-.4 14.6-1.7 17.4-7.2 1.9-3.5 2.1-11.3.4-14.4-.6-1.2-2.8-3.4-4.8-4.9-5.1-3.9-14.7-4.4-21.8-1zm11.9 10.3c2.5 1 2 5.1-.6 5.8-3.5.9-9.8.7-9.8-.3 0-1.3 5.9-6.1 7.5-6.1.7 0 2 .3 2.9.6zm-191 9.4c-13.1 2.6-22.4 11.9-22.4 22.4 0 5.9 1.6 9.2 5.1 10.6 6.1 2.6 13.1-2.5 18.8-13.8 3.2-6.3 8.1-18.1 8.1-19.4 0-1-4-.9-9.6.2zm231.1 6c-.3.5-.1 1 .4 1 .6 0 1.1-.5 1.1-1 0-.6-.2-1-.4-1-.3 0-.8.4-1.1 1zm-283.3 58.2c2.5 7.7 12.2 26.2 18.6 35.9 13.6 20.2 30.5 36.9 50.7 50.2 8.6 5.6 27.4 15.3 34.3 17.5l3.2 1.1v-11.5l-6.7-2.8c-32-13.6-62.6-41.4-79.5-72.1-2.4-4.4-5.7-11-7.3-14.8l-2.9-6.7h-11.5l1.1 3.2zm319.3 3.5c-8 18.4-18.3 33.8-33 49.1-15.4 16.1-34.8 29.7-53.7 37.8l-6.8 2.8v11.5l3.3-1.1c6.8-2.2 25.6-11.9 34.2-17.5 20.2-13.3 37.1-30 50.7-50.2 6.4-9.7 16.1-28.2 18.6-35.9l1.1-3.2h-11.5l-2.9 6.7z"/></svg>