<svg version="1.0" xmlns="http://www.w3.org/2000/svg" width="826.667" height="826.667" viewBox="0 0 620 620"><path d="M139.8 70c-28.7 4.9-52.3 27.2-59.8 56.4-2 7.8-2 10.8-2 160 0 148 .1 152.3 2 160.3 6.5 27.1 27.6 48.4 54.7 55.3 7.4 1.9 12 2 160.8 2 148.3 0 153.4-.1 160.8-1.9 21.7-5.6 39.3-20.1 49.2-40.6 8-16.6 7.5-4.8 7.5-175.3 0-149 0-152-2-159.8-5.6-22-19.9-39.9-39.5-49.4-16.7-8.1-1.4-7.5-173.5-7.6-84.4-.1-155.6.2-158.2.6zM344 159c18.6 3 33.8 17.8 38 37.1 1.8 8.3.8 25.8-1.9 33.9-5.2 15.1-16.9 29.4-29.4 36.1l-6.6 3.5 11.4 26.9c6.3 14.8 12.3 28.1 13.3 29.5l1.9 2.5 33.9.5c37.3.6 38.5.7 43.9 7.2 7.2 8.6 4.7 25-4.9 32-7.8 5.6-10.7 5.9-51.8 5.6-25.7-.3-38.4-.8-40.9-1.6-6.7-2.3-15.3-8.6-19.2-14.3-2.1-3.1-9.7-19.8-17.7-38.9-7.7-18.4-14.4-34.4-14.9-35.5l-.9-2-.8 2c-4.9 12.8-21.6 52.1-25.1 59.2-17.1 35.2-44.2 54.2-77.3 54.3-39.3 0-65.9-27.1-66-67.3 0-9.1 3.4-25.4 7.2-34.5 12.7-30.5 42.8-53.7 79.5-61.1 19-3.9 33.8-2.4 42.7 4.4l3.6 2.7 1-2.3c2.9-6.8 14-34.5 14-35 0-.3-2.5-.9-5.5-1.2-14.1-1.4-21.9-12.2-18.5-25.5 2.3-9.2 8.3-15.2 17.8-17.8 5.9-1.6 63.6-1.9 73.2-.4z"/><path d="M271.3 167.6c-11.5 4.2-14.9 18.2-6 24.8 2.4 1.8 4.6 2.2 13.4 2.4 9.2.3 10.4.6 10 2-1.7 6.1-46.8 115.7-51.1 124.3-12 24-21.8 33.5-36.3 35.5-16.6 2.2-28.1-8.5-29.1-27.1-1-19.6 10.4-38.4 29.5-48.2 9.8-5.1 16.2-6.9 32.3-9.3 7-1 14.4-2.6 16.4-3.5 4.7-2.2 7.6-7.1 7.6-12.6 0-6.4-2.9-10.5-9.7-13.6-5.3-2.4-6.2-2.5-16.7-2-26.3 1.4-49.9 11.9-68.7 30.6-11 11-17.6 21.2-21.5 33.5-8.8 27.7-3.7 53.9 13.4 69.8 10.8 9.9 24 14.8 40.1 14.8 25.5-.1 46.5-12.4 62.8-36.8 5.3-8.1 13.8-26.6 27.3-59.7 6.7-16.5 12.5-30.3 12.9-30.7.4-.5 8.9 18.9 18.9 43 11.3 26.9 19.6 45.5 21.8 48.5 4.2 5.8 10.9 10.2 17.8 11.7 3.4.8 16.8 1 40.1.8 33.2-.3 35.2-.4 39-2.4 4.8-2.5 8.1-7 9-12.4.8-4.7-.8-8.4-4.8-11.4-2.7-2-4.3-2.1-37-2.6-36.5-.5-36.9-.6-40.5-5.7-2.2-3.2-28.2-63.9-28.2-65.9 0-.8.6-1.4 1.4-1.4.7 0 4.6-1.7 8.7-3.7 13.9-6.9 25.7-22 29.4-37.4 1.7-7.3 1.9-19.4.4-25.8-2.8-12.1-12.6-23.8-23.6-28.2-5.6-2.2-7-2.3-40.3-2.6-28.9-.2-35.2 0-38.7 1.3zm65.2 30c5.7 3.7 7.8 13.3 5.1 22.9-1.4 4.5-2.9 6.9-6.9 11-6 5.9-11.6 8.3-22 9.2l-6.9.6 1.4-3.4c.8-1.9 5-12.3 9.4-23.3l7.9-19.8 4.7.5c2.6.3 5.9 1.4 7.3 2.3z"/><path d="M324.3 217.3c-2.9 7.3-5.3 13.6-5.3 14 0 1.2 6.2-2.2 9.3-5.2 4.3-3.9 5.9-7.8 5.8-13.9 0-5.3-1.3-8.2-3.5-8.2-.6 0-3.5 6-6.3 13.3zM234 280.2c-6.9 1-14.7 2.5-17.5 3.4-20.9 6.9-35.1 22.9-36.3 40.8-.9 13.9 4.4 22.7 14.3 24 13.8 1.9 23.6-6.5 35.5-30.3 4.8-9.6 17.4-39.2 16.8-39.6-.2 0-5.9.7-12.8 1.7z"/></svg>